<?xml version="1.0" standalone="no"?>
<!DOCTYPE svg PUBLIC "-//W3C//DTD SVG 20010904//EN"
 "http://www.w3.org/TR/2001/REC-SVG-20010904/DTD/svg10.dtd">
<svg version="1.0" xmlns="http://www.w3.org/2000/svg"
 width="645.000000pt" height="1280.000000pt" viewBox="0 0 645.000000 1280.000000"
 preserveAspectRatio="xMidYMid meet">
<g transform="translate(0.000000,1280.000000) scale(0.100000,-0.100000)"
fill="#000000" stroke="none">
<path d="M5283 12729 l-62 -60 34 -15 c38 -15 46 -42 20 -64 -9 -7 -13 -21
-10 -31 8 -25 -12 -59 -34 -59 -11 0 -21 -7 -25 -15 -3 -8 -16 -15 -28 -15
-23 0 -66 -24 -80 -44 -4 -5 -10 -31 -13 -56 -8 -59 -17 -72 -46 -68 -15 2
-29 15 -39 35 -13 29 -19 33 -57 33 -24 0 -43 -3 -43 -7 0 -5 25 -34 56 -66
49 -50 55 -61 49 -87 -5 -23 -2 -31 15 -40 18 -10 21 -17 15 -46 -4 -26 -1
-43 14 -68 32 -52 27 -103 -18 -189 -48 -92 -76 -177 -68 -209 4 -14 18 -30
32 -36 34 -16 32 -31 -6 -39 -25 -5 -35 -15 -54 -60 -20 -44 -32 -57 -67 -73
-66 -30 -188 -22 -188 13 0 6 -2 8 -5 5 -3 -3 2 -22 10 -42 18 -43 15 -52 -22
-59 -118 -23 -119 -24 -131 -80 -7 -29 -15 -78 -18 -110 -6 -49 -11 -61 -30
-69 -44 -20 -69 2 -103 92 -38 98 -89 157 -120 139 -23 -15 -53 -5 -45 16 3 8
1 15 -5 15 -6 0 -14 -14 -18 -31 -3 -19 -14 -34 -24 -36 -12 -4 -20 -18 -24
-42 -3 -20 -10 -56 -15 -82 -6 -30 -5 -63 3 -100 11 -50 16 -56 59 -79 64 -35
65 -37 38 -65 l-23 -24 33 -31 c30 -28 32 -34 27 -78 -8 -64 -29 -124 -46
-130 -14 -5 -13 22 5 107 7 37 -4 51 -45 51 l-24 0 22 -24 c18 -19 21 -30 16
-60 -11 -58 -75 -76 -117 -34 -20 20 -22 20 -34 4 -7 -10 -10 -25 -7 -33 3 -8
-9 -27 -31 -47 -32 -30 -36 -39 -36 -81 0 -25 5 -56 12 -68 6 -12 11 -36 10
-53 l-2 -31 64 -6 c35 -3 80 -3 100 0 29 5 36 2 36 -11 0 -18 -46 -40 -70 -32
-90 28 -80 29 -122 -16 -21 -23 -38 -47 -38 -53 0 -6 -11 -22 -25 -35 -14 -13
-25 -33 -25 -44 0 -12 -14 -43 -30 -71 -16 -27 -34 -62 -40 -76 -6 -15 -19
-29 -29 -32 -12 -3 -21 -18 -25 -40 -7 -38 -37 -67 -68 -67 -15 0 -18 9 -18
65 0 62 3 69 45 127 25 34 45 65 45 69 0 4 -7 20 -15 35 -8 16 -12 36 -10 45
3 9 -1 22 -9 29 -13 10 -21 8 -43 -11 -39 -33 -113 -125 -106 -133 4 -3 19 -6
35 -6 44 0 34 -24 -29 -68 -32 -21 -59 -45 -59 -53 -1 -8 -2 -19 -3 -26 0 -6
-33 -32 -71 -58 -74 -48 -103 -86 -82 -107 7 -7 12 -20 12 -29 0 -9 11 -24 25
-33 29 -19 61 -112 45 -131 -18 -21 -110 -56 -138 -53 -42 5 -39 33 7 80 23
22 41 44 41 49 0 5 -17 16 -39 25 -28 11 -43 25 -52 49 l-14 34 -35 -19 c-19
-11 -51 -28 -70 -38 -19 -10 -62 -44 -95 -76 -33 -32 -75 -64 -92 -72 -18 -8
-33 -18 -33 -22 0 -5 -39 -35 -86 -67 -97 -66 -140 -119 -130 -161 7 -25 -7
-54 -25 -54 -5 0 -20 13 -35 29 -29 33 -66 43 -102 30 -31 -12 -107 -77 -107
-91 0 -23 -25 -19 -35 6 -5 14 -15 26 -21 26 -6 0 -22 9 -36 20 -34 26 -60 25
-117 -5 -26 -14 -60 -25 -75 -25 -33 0 -66 -40 -66 -80 -1 -49 -18 -130 -27
-130 -5 0 -14 14 -20 31 -9 25 -15 29 -32 24 -11 -3 -47 -10 -80 -15 -32 -5
-61 -11 -64 -14 -3 -3 0 -18 7 -33 12 -26 10 -30 -26 -60 -52 -44 -63 -42 -63
11 0 24 -7 60 -16 81 -15 36 -16 36 -37 21 -12 -9 -42 -30 -67 -46 -25 -16
-62 -50 -84 -75 -23 -28 -59 -56 -92 -72 -30 -14 -64 -37 -75 -52 l-20 -26
-17 22 c-16 19 -30 21 -169 26 -178 6 -165 17 -165 -126 -1 -65 4 -104 17
-134 15 -39 15 -44 1 -65 -10 -13 -16 -43 -16 -75 0 -43 -5 -58 -29 -85 -15
-18 -50 -69 -76 -113 -82 -135 -151 -239 -168 -254 -10 -7 -17 -26 -17 -41 0
-19 -15 -46 -45 -81 -26 -30 -52 -74 -59 -100 -8 -26 -22 -58 -31 -72 -13 -21
-15 -42 -9 -132 l7 -108 34 -20 35 -20 -7 -141 c-5 -109 -3 -164 9 -241 14
-80 15 -109 5 -148 -14 -59 -7 -86 30 -123 16 -16 59 -93 96 -174 l67 -145 -7
-65 c-16 -137 -8 -185 46 -305 27 -60 65 -126 83 -145 19 -19 39 -45 45 -57
16 -31 14 -78 -4 -93 -8 -7 -15 -27 -15 -44 0 -22 -8 -40 -25 -56 -26 -24 -33
-54 -15 -65 5 -3 10 -32 10 -64 0 -48 5 -65 35 -111 19 -30 35 -66 35 -80 0
-34 -44 -125 -74 -153 -32 -29 -116 -193 -116 -226 0 -19 -18 -42 -65 -86 -62
-58 -65 -63 -80 -135 -18 -87 -39 -121 -83 -135 -18 -5 -32 -15 -32 -23 0 -8
-16 -39 -35 -70 -28 -46 -36 -74 -45 -147 -13 -96 -52 -231 -75 -254 -8 -8
-55 -20 -107 -27 -126 -16 -142 -24 -156 -71 -7 -22 -21 -48 -32 -58 -15 -14
-17 -21 -9 -38 6 -11 15 -51 20 -90 10 -76 8 -79 -73 -168 -19 -20 -30 -46
-34 -80 -7 -52 -19 -68 -37 -50 -7 7 -17 -8 -34 -56 -29 -82 -34 -263 -8 -263
21 0 19 -12 -6 -33 -15 -14 -19 -25 -14 -44 3 -14 1 -31 -5 -38 -9 -11 -6 -21
12 -45 18 -25 22 -42 21 -83 -2 -32 6 -85 22 -137 13 -47 34 -119 45 -160 23
-80 55 -144 89 -174 11 -10 23 -33 27 -51 5 -26 10 -31 28 -28 31 6 56 -27 66
-89 21 -135 48 -222 71 -238 13 -8 39 -28 57 -44 34 -30 34 -30 27 -95 -8 -75
-14 -86 -53 -94 -25 -5 -30 -13 -42 -60 -7 -30 -10 -68 -7 -83 3 -16 11 -54
17 -84 6 -30 11 -136 10 -235 0 -247 5 -281 44 -321 17 -18 38 -40 46 -48 8
-9 36 -34 62 -57 63 -54 92 -116 84 -173 -6 -38 -3 -51 29 -102 38 -63 67
-146 59 -168 -3 -7 7 -31 21 -52 24 -35 31 -39 70 -39 34 0 51 -7 72 -27 15
-14 47 -37 70 -52 28 -17 45 -35 49 -54 3 -15 7 -32 9 -38 3 -10 120 -33 250
-50 69 -9 174 -42 207 -65 14 -11 38 -39 52 -63 21 -35 36 -48 83 -66 69 -28
93 -46 93 -73 0 -18 4 -19 68 -12 37 4 115 9 174 11 120 4 143 12 223 79 52
44 139 105 149 105 4 0 32 18 64 39 78 54 326 149 432 167 85 14 184 11 207
-8 19 -15 82 8 168 62 43 27 89 50 101 50 16 0 29 12 46 43 19 34 29 43 56 45
38 4 67 40 57 71 -8 25 17 84 43 102 10 8 22 30 24 49 3 19 15 61 27 94 12 32
37 116 56 187 19 71 45 150 59 177 13 26 29 68 36 92 7 25 27 70 45 100 43 73
104 211 121 274 8 28 14 74 14 101 0 30 16 105 41 185 59 198 73 248 114 425
20 88 46 193 56 233 10 40 19 94 20 120 1 126 46 312 102 427 19 39 49 111 68
160 18 50 54 146 80 215 26 69 50 141 54 160 4 19 18 56 31 81 12 25 34 98 49
162 14 65 45 177 69 250 24 72 53 173 64 222 73 302 97 391 142 518 28 78 80
201 117 273 63 126 66 135 74 229 5 54 13 124 20 154 13 65 67 214 104 285 18
35 25 65 25 103 0 34 7 68 20 93 30 59 60 138 171 454 33 94 69 184 80 202 11
18 28 77 39 131 10 54 26 118 34 142 9 24 16 53 16 65 0 11 25 106 54 210 49
173 53 192 39 212 -8 12 -19 53 -24 91 -5 37 -13 77 -18 88 -4 11 -16 37 -25
58 -23 54 -21 67 24 152 22 41 48 101 59 133 10 31 33 88 50 125 34 73 43 80
139 99 55 11 61 18 36 39 -21 17 -44 64 -44 89 0 13 9 24 25 30 14 5 25 13 25
18 0 5 13 29 30 53 16 24 30 55 30 69 0 14 7 36 15 50 12 23 12 27 -11 45 -30
24 -34 87 -11 151 14 37 14 44 1 63 -9 12 -31 23 -54 27 -44 7 -64 26 -74 67
-3 15 -9 38 -12 52 -4 15 2 40 15 68 25 51 26 65 6 91 -8 11 -15 31 -15 45 -1
14 -9 44 -20 66 -13 28 -17 52 -13 80 4 30 1 44 -11 54 -26 22 -19 58 19 100
28 30 45 40 78 45 23 3 59 8 80 12 54 9 67 -6 67 -77 0 -53 2 -59 31 -80 29
-21 31 -25 26 -69 -5 -43 -3 -50 24 -76 22 -21 29 -37 29 -65 0 -45 29 -84 70
-92 19 -4 34 -16 42 -32 6 -14 17 -25 25 -25 20 0 53 37 53 60 0 11 9 25 20
32 11 7 20 21 20 30 0 10 9 22 20 28 13 7 20 21 20 41 0 38 32 134 76 226 19
40 39 95 45 123 6 27 15 52 20 56 12 7 12 64 0 64 -5 0 -16 16 -25 35 -9 19
-20 37 -25 39 -5 3 -12 18 -16 33 -3 15 -21 43 -39 63 -52 58 -136 249 -136
311 0 13 -9 52 -20 86 -21 69 -27 166 -15 261 7 57 6 65 -15 87 -21 23 -22 28
-13 99 7 59 6 81 -5 102 -10 19 -13 46 -9 87 6 72 -7 163 -33 226 -10 25 -33
91 -49 147 -24 78 -30 111 -25 146 7 51 -10 90 -60 137 -23 22 -26 32 -26 92
0 38 -4 78 -9 91 -5 13 -12 35 -15 51 -5 18 -13 27 -26 27 -13 0 -20 7 -20 20
0 11 -7 20 -15 20 -17 0 -35 30 -35 62 -1 26 -16 50 -44 65 -16 9 -23 7 -36
-10 l-17 -21 -12 23 c-7 12 -11 34 -9 49 2 20 -2 28 -17 30 -11 2 -24 8 -28
12 -9 8 -17 62 -17 110 0 37 -30 132 -49 153 -11 14 -24 17 -46 13 -30 -6 -33
-4 -56 46 -27 58 -49 74 -49 34 0 -13 -4 -27 -9 -31 -10 -6 -41 21 -41 35 0 4
-13 13 -30 19 -33 11 -35 17 -20 56 6 16 14 23 22 19 13 -8 88 -12 88 -4 0 3
-9 33 -19 67 -18 58 -54 123 -69 123 -4 0 -35 -28 -69 -61z"/>
<path d="M4469 11653 c-1 -5 -2 -17 -3 -28 -1 -16 -7 -20 -34 -19 -42 2 -52
-29 -25 -83 19 -41 41 -49 98 -39 31 6 33 9 30 41 -4 41 -23 105 -38 123 -11
13 -26 16 -28 5z"/>
<path d="M4530 11420 c0 -5 5 -10 10 -10 6 0 10 5 10 10 0 6 -4 10 -10 10 -5
0 -10 -4 -10 -10z"/>
<path d="M4045 10910 c3 -5 8 -10 11 -10 2 0 4 5 4 10 0 6 -5 10 -11 10 -5 0
-7 -4 -4 -10z"/>
<path d="M3860 10441 c0 -12 6 -21 16 -21 9 0 14 7 12 17 -5 25 -28 28 -28 4z"/>
<path d="M5985 8430 c-3 -5 -3 -15 1 -21 6 -11 23 6 24 24 0 10 -18 9 -25 -3z"/>
<path d="M5952 8358 c-7 -7 -12 -20 -12 -29 0 -10 -9 -25 -21 -33 -20 -13 -65
-146 -50 -146 13 0 54 72 81 144 27 73 28 90 2 64z"/>
</g>
</svg>
